Coordinates
nRows=5
nColumns=24

# SIMM Motion File Header:
name Coordinates
datacolumns 24
datarows 5
otherdata 1
range 1.07233000000000000000 1.07633000000000000000
endheader
time	pelvis_tx	pelvis_ty	pelvis_tz	pelvis_tilt	pelvis_list	pelvis_rotation	hip_flexion_r	hip_adduction_r	hip_rotation_r	knee_angle_r	ankle_angle_r	subtalar_angle_r	mtp_angle_r	hip_flexion_l	hip_adduction_l	hip_rotation_l	knee_angle_l	ankle_angle_l	subtalar_angle_l	mtp_angle_l	lumbar_extension	lumbar_bending	lumbar_rotation
      1.07233000000000000000	      2.09364722028848730000	      0.82719926934121024000	     -0.26218510159899655000	     -3.76901512658624240000	     -2.16965538957930050000	     -0.50959620006473760000	      5.25714409901966920000	      7.27506247330459570000	      1.03813333177536690000	     -8.20064929519992700000	      4.24898435914924550000	      0.00000000000010595207	      0.00000000000017142273	     28.62116404881040300000	     -5.69603980995889620000	      0.62773705469032093000	    -52.82252900195471300000	      7.35428231685790300000	     -0.00000000000043367982	      0.00000000000116223861	      6.57106471519149690000	     -1.22763859778883890000	     14.87090830372634200000
      1.07333000000000010000	      2.09425673716273010000	      0.82716034576626607000	     -0.26218203914015853000	     -3.78274711035505720000	     -2.14316352684133980000	     -0.54317392484785787000	      5.19815417119422300000	      7.25656836005122050000	      1.06536532867391040000	     -8.16690536516328080000	      4.30358905602431820000	      0.00000000000010638966	      0.00000000000017135393	     28.69540912167985200000	     -5.64976385324801810000	      0.64436626403337149000	    -52.59014079922405900000	      7.40369680297537690000	     -0.00000000000043428840	      0.00000000000116407381	      6.58502140585153220000	     -1.25513622452477550000	     14.90439994609298000000
      1.07433000000000000000	      2.09486689125234940000	      0.82712023688281966000	     -0.26217995644917169000	     -3.79662518304153230000	     -2.11719608160573140000	     -0.57692697851821217000	      5.13932412556908070000	      7.23843145666491510000	      1.09277595607020590000	     -8.13300276402543790000	      4.35605455174759460000	      0.00000000000010684240	      0.00000000000017122744	     28.76824402987609400000	     -5.60411649777823500000	      0.66142019415958264000	    -52.35454634399732800000	      7.45037856067536360000	     -0.00000000000043489698	      0.00000000000116592253	      6.59932365687692890000	     -1.28168614062827580000	     14.93724395758532700000
      1.07533000000000010000	      2.09547704534196910000	      0.82708012799937314000	     -0.26217787375818485000	     -3.81050325572801010000	     -2.09122863637011710000	     -0.61068003218857403000	      5.08049407994392510000	      7.22029455327860510000	      1.12018658346650770000	     -8.09910016288758780000	      4.40852004747088260000	      0.00000000000010729514	      0.00000000000017110094	     28.84107893807235400000	     -5.55846914230844200000	      0.67847412428579756000	    -52.11895188877053900000	      7.49706031837535920000	     -0.00000000000043550557	      0.00000000000116777124	      6.61362590790232920000	     -1.30823605673178190000	     14.97008796907768300000
      1.07633000000000000000	      2.09608804737949360000	      0.82703853138921424000	     -0.26217707283472907000	     -3.82453712455158930000	     -2.06602303040958410000	     -0.64466665176393645000	      5.02188606544184330000	      7.20267985292494560000	      1.14763928828499930000	     -8.06502881639615230000	      4.45574623451516420000	      0.00000000000010775227	      0.00000000000017093669	     28.91198815944178300000	     -5.51374967714025570000	      0.69612188292709587000	    -51.87920214127116500000	      7.54011354456526740000	     -0.00000000000043611465	      0.00000000000116964377	      6.62833229930212480000	     -1.33344876812375590000	     15.00204851847964500000
